<svg xmlns="http://www.w3.org/2000/svg" version="1.1" viewBox="0.42115673422813416 0 590.1821899414062 590.261474609375" width="591.00" height="591.00">
<g stroke-width="2.00" fill="none" stroke-linecap="butt">
<path stroke="#ffb782" stroke-opacity="0.992" d="&#10;  M 451.70 201.69&#10;  Q 441.60 210.92 433.35 222.00"/>
<path stroke="#ffbc83" stroke-opacity="0.992" d="&#10;  M 452.74 262.49&#10;  C 443.83 271.80 436.68 281.23 431.55 293.11"/>
<path stroke="#ffa67e" stroke-opacity="0.992" d="&#10;  M 344.74 197.05&#10;  Q 349.81 190.72 353.15 185.34&#10;  Q 363.12 169.27 358.64 150.66&#10;  Q 356.51 141.80 353.40 135.34&#10;  Q 344.90 117.71 343.01 114.00&#10;  C 334.96 98.21 320.21 86.59 305.19 77.27&#10;  C 284.64 64.51 267.14 55.31 243.12 42.66&#10;  Q 237.22 39.55 225.64 31.71"/>
<path stroke="#ffb680" stroke-opacity="0.992" d="&#10;  M 387.79 328.68&#10;  L 363.47 353.53"/>
<path stroke="#ffb17f" stroke-opacity="0.992" d="&#10;  M 330.71 334.65&#10;  C 317.28 343.65 302.95 349.33 287.25 354.73"/>
<path stroke="#ff9979" stroke-opacity="0.992" d="&#10;  M 277.59 227.40&#10;  Q 280.04 224.59 282.58 221.66&#10;  C 288.32 215.05 295.76 208.41 300.57 203.69&#10;  Q 313.81 190.71 313.14 172.77&#10;  C 312.09 144.89 295.98 120.48 274.52 103.72&#10;  Q 258.54 91.23 243.53 83.58&#10;  C 231.91 77.64 218.47 73.29 205.24 66.25"/>
<path stroke="#ff9979" stroke-opacity="0.992" d="&#10;  M 236.55 318.97&#10;  Q 226.45 315.72 209.83 311.97&#10;  Q 196.70 309.02 181.91 301.97"/>
</g>
<path fill="#ffab81" fill-opacity="0.992" d="&#10;  M 309.48 0.00&#10;  C 312.94 0.82 316.95 0.99 319.82 1.53&#10;  Q 339.95 5.32 357.05 16.17&#10;  Q 360.13 18.12 366.21 22.88&#10;  Q 371.25 26.81 374.57 30.25&#10;  Q 392.64 48.97 398.98 74.61&#10;  Q 399.89 78.25 400.54 83.05&#10;  Q 401.30 88.57 401.35 88.71&#10;  Q 401.87 90.18 401.91 94.36&#10;  C 401.97 100.51 402.43 107.43 400.92 112.95&#10;  A 1.90 1.82 53.4 0 0 400.86 113.42&#10;  L 400.85 137.36&#10;  A 28.40 28.40 0.0 0 0 401.37 142.77&#10;  Q 401.79 144.90 402.35 148.97&#10;  Q 403.95 160.61 410.48 170.54&#10;  C 419.84 184.79 435.81 195.54 451.70 201.69&#10;  Q 441.60 210.92 433.35 222.00&#10;  Q 423.41 217.53 417.93 213.83&#10;  Q 406.34 205.99 389.07 191.02&#10;  C 387.89 190.00 386.83 188.67 385.28 187.82&#10;  A 0.92 0.91 1.1 0 0 384.02 189.03&#10;  Q 400.68 222.54 429.31 246.69&#10;  Q 438.94 254.81 452.74 262.49&#10;  C 443.83 271.80 436.68 281.23 431.55 293.11&#10;  Q 427.36 289.21 423.39 285.36&#10;  Q 393.62 256.53 376.43 238.32&#10;  Q 371.22 232.81 361.21 220.31&#10;  Q 352.30 209.18 344.74 197.05&#10;  Q 349.81 190.72 353.15 185.34&#10;  Q 363.12 169.27 358.64 150.66&#10;  Q 356.51 141.80 353.40 135.34&#10;  Q 344.90 117.71 343.01 114.00&#10;  C 334.96 98.21 320.21 86.59 305.19 77.27&#10;  C 284.64 64.51 267.14 55.31 243.12 42.66&#10;  Q 237.22 39.55 225.64 31.71&#10;  Q 234.59 22.13 246.27 15.03&#10;  Q 260.75 6.23 276.15 2.64&#10;  Q 278.73 2.04 279.77 1.97&#10;  Q 281.45 1.87 282.88 1.29&#10;  A 2.11 1.69 24.7 0 1 283.28 1.19&#10;  L 292.22 0.00&#10;  L 309.48 0.00&#10;  Z"/>
<path fill="#ffa07b" fill-opacity="0.992" d="&#10;  M 225.64 31.71&#10;  Q 237.22 39.55 243.12 42.66&#10;  C 267.14 55.31 284.64 64.51 305.19 77.27&#10;  C 320.21 86.59 334.96 98.21 343.01 114.00&#10;  Q 344.90 117.71 353.40 135.34&#10;  Q 356.51 141.80 358.64 150.66&#10;  Q 363.12 169.27 353.15 185.34&#10;  Q 349.81 190.72 344.74 197.05&#10;  Q 340.80 190.54 337.33 183.71&#10;  Q 336.21 181.50 333.91 181.86&#10;  A 2.47 2.03 -88.8 0 0 332.16 183.90&#10;  Q 331.76 186.61 332.14 190.13&#10;  C 332.75 195.75 332.51 203.76 332.40 206.75&#10;  C 332.18 212.65 332.75 216.07 333.08 223.05&#10;  A 6.54 6.42 36.9 0 0 333.29 224.43&#10;  C 334.19 227.95 333.75 231.40 334.36 235.08&#10;  Q 335.20 240.26 336.43 247.63&#10;  Q 338.15 257.95 342.86 271.32&#10;  Q 346.30 281.09 352.89 291.54&#10;  Q 358.76 300.86 366.64 309.31&#10;  Q 376.40 319.79 387.79 328.68&#10;  L 363.47 353.53&#10;  Q 345.74 340.31 336.22 334.02&#10;  Q 335.24 333.37 334.67 332.92&#10;  C 333.28 331.83 332.84 331.53 331.51 331.13&#10;  A 0.51 0.51 0.0 0 0 330.87 331.49&#10;  Q 330.46 333.11 330.71 334.65&#10;  C 317.28 343.65 302.95 349.33 287.25 354.73&#10;  Q 291.32 343.16 291.91 338.48&#10;  Q 292.89 330.67 293.85 323.69&#10;  Q 294.18 321.33 294.09 306.35&#10;  Q 294.07 303.36 293.35 300.20&#10;  C 292.77 297.61 293.16 295.06 292.69 291.95&#10;  Q 288.43 263.71 280.14 236.25&#10;  C 279.40 233.80 278.69 230.33 277.59 227.40&#10;  Q 280.04 224.59 282.58 221.66&#10;  C 288.32 215.05 295.76 208.41 300.57 203.69&#10;  Q 313.81 190.71 313.14 172.77&#10;  C 312.09 144.89 295.98 120.48 274.52 103.72&#10;  Q 258.54 91.23 243.53 83.58&#10;  C 231.91 77.64 218.47 73.29 205.24 66.25&#10;  Q 211.61 46.60 225.64 31.71&#10;  Z"/>
<path fill="#ff9277" fill-opacity="0.992" d="&#10;  M 277.59 227.40&#10;  Q 276.26 227.01 275.98 229.55&#10;  Q 275.73 231.81 275.71 231.93&#10;  Q 271.45 256.84 260.96 279.24&#10;  Q 251.10 300.29 236.55 318.97&#10;  Q 226.45 315.72 209.83 311.97&#10;  Q 196.70 309.02 181.91 301.97&#10;  Q 197.70 290.19 206.48 280.74&#10;  Q 222.95 263.00 231.85 241.90&#10;  Q 239.03 224.92 242.35 205.56&#10;  Q 243.22 200.52 243.16 200.32&#10;  A 1.86 1.84 48.1 0 1 243.21 199.24&#10;  C 244.46 195.67 243.79 192.13 244.69 188.31&#10;  Q 245.29 185.80 244.99 180.80&#10;  A 1.55 1.55 0.0 0 0 242.90 179.44&#10;  L 240.70 180.27&#10;  A 0.97 0.82 -68.0 0 0 240.49 180.38&#10;  Q 237.11 182.85 234.55 186.12&#10;  Q 232.14 189.19 231.48 189.94&#10;  Q 216.99 206.42 202.12 219.88&#10;  Q 194.41 226.86 192.25 228.73&#10;  Q 177.56 241.46 167.25 252.00&#10;  Q 151.90 267.68 148.70 270.44&#10;  Q 135.02 282.24 116.64 293.40&#10;  Q 99.46 303.83 79.75 313.39&#10;  Q 64.87 320.61 58.18 324.94&#10;  Q 26.54 345.44 11.63 381.38&#10;  A 0.55 0.55 0.0 0 1 10.57 381.11&#10;  Q 11.24 374.29 12.94 367.72&#10;  Q 14.79 360.59 16.07 356.52&#10;  Q 19.07 347.04 23.91 338.51&#10;  C 32.56 323.28 45.88 311.57 61.38 303.34&#10;  Q 67.44 300.12 79.30 294.32&#10;  Q 93.44 287.41 104.51 278.52&#10;  C 109.46 274.55 116.98 267.83 121.73 262.50&#10;  C 128.20 255.24 131.79 251.56 137.62 244.38&#10;  Q 142.14 238.82 146.05 234.57&#10;  A 2.80 2.61 5.1 0 1 146.72 234.05&#10;  Q 148.24 233.22 148.25 231.26&#10;  A 0.93 0.92 -10.1 0 0 147.00 230.39&#10;  L 142.96 231.91&#10;  A 1.80 1.80 0.0 0 1 142.26 232.01&#10;  Q 138.47 231.73 135.05 232.79&#10;  A 3.65 3.56 -52.9 0 1 133.99 232.95&#10;  L 125.85 232.95&#10;  A 2.98 2.84 -51.6 0 0 125.06 233.06&#10;  C 120.10 234.49 113.16 233.97 105.76 234.05&#10;  Q 101.12 234.10 89.43 235.91&#10;  C 69.90 238.94 51.79 246.04 35.64 257.14&#10;  C 29.47 261.38 22.64 266.90 16.62 272.84&#10;  Q 5.76 283.55 2.89 286.64&#10;  Q 2.05 287.56 1.42 287.97&#10;  A 0.65 0.64 84.7 0 1 0.47 287.18&#10;  C 5.55 275.14 12.09 263.48 20.30 253.63&#10;  Q 52.08 215.48 102.56 209.17&#10;  Q 107.78 208.52 107.92 208.50&#10;  Q 111.62 207.94 114.32 207.91&#10;  A 2.58 2.38 30.9 0 0 115.23 207.72&#10;  Q 116.04 207.38 119.99 206.88&#10;  Q 127.71 205.89 137.04 203.77&#10;  C 156.83 199.26 175.92 188.41 188.83 172.34&#10;  Q 199.63 158.87 200.96 141.67&#10;  Q 201.35 136.53 201.83 134.71&#10;  A 2.21 1.98 55.9 0 0 201.91 134.13&#10;  C 201.92 125.01 202.31 121.27 201.34 114.75&#10;  C 200.70 110.37 201.37 105.90 200.49 100.87&#10;  Q 199.78 96.83 200.26 93.75&#10;  Q 201.32 86.95 201.09 85.00&#10;  A 2.93 2.88 54.2 0 1 201.32 83.49&#10;  Q 201.79 82.38 202.07 79.25&#10;  Q 202.47 74.66 205.24 66.25&#10;  C 218.47 73.29 231.91 77.64 243.53 83.58&#10;  Q 258.54 91.23 274.52 103.72&#10;  C 295.98 120.48 312.09 144.89 313.14 172.77&#10;  Q 313.81 190.71 300.57 203.69&#10;  C 295.76 208.41 288.32 215.05 282.58 221.66&#10;  Q 280.04 224.59 277.59 227.40&#10;  Z"/>
<path fill="#ffc282" fill-opacity="0.992" d="&#10;  M 451.70 201.69&#10;  Q 465.35 206.89 479.74 209.06&#10;  Q 492.31 210.96 505.03 213.46&#10;  C 525.63 217.51 543.54 226.43 558.89 240.61&#10;  Q 580.27 260.37 590.27 288.23&#10;  Q 590.67 289.34 590.59 289.77&#10;  A 0.79 0.79 0.0 0 1 589.18 290.12&#10;  Q 579.40 277.48 568.12 266.14&#10;  Q 552.46 250.40 532.06 242.70&#10;  Q 520.99 238.52 506.23 236.31&#10;  Q 496.01 234.77 486.09 233.84&#10;  Q 473.51 232.67 465.98 231.29&#10;  Q 449.19 228.23 433.35 222.00&#10;  Q 441.60 210.92 451.70 201.69&#10;  Z"/>
<path fill="#ffcc84" fill-opacity="0.992" d="&#10;  M 452.74 262.49&#10;  Q 467.43 270.58 482.23 276.05&#10;  Q 488.69 278.43 501.28 282.69&#10;  C 506.68 284.52 510.74 286.48 515.85 288.75&#10;  Q 518.27 289.82 521.44 291.74&#10;  Q 534.49 299.63 544.71 311.58&#10;  C 556.98 325.93 567.16 342.98 572.84 361.14&#10;  C 574.26 365.69 574.78 369.87 575.86 374.58&#10;  Q 576.24 376.27 575.54 379.17&#10;  A 0.19 0.18 41.0 0 1 575.19 379.19&#10;  C 563.17 350.10 543.51 326.07 515.54 311.36&#10;  Q 510.00 308.45 492.57 302.55&#10;  Q 480.24 298.38 468.82 293.87&#10;  Q 467.30 293.27 465.41 292.26&#10;  Q 464.00 291.51 461.95 290.87&#10;  A 0.48 0.48 0.0 0 0 461.33 291.32&#10;  Q 461.31 292.44 463.05 294.69&#10;  Q 468.29 301.46 471.71 310.23&#10;  Q 472.37 311.92 479.37 329.89&#10;  Q 486.96 349.41 498.15 364.62&#10;  Q 503.01 371.23 514.81 385.66&#10;  Q 532.78 407.62 538.76 436.39&#10;  C 539.33 439.15 540.53 442.30 540.35 445.51&#10;  A 0.36 0.36 0.0 0 1 539.68 445.66&#10;  Q 531.54 431.12 524.71 420.29&#10;  Q 522.33 416.52 515.10 407.62&#10;  C 508.13 399.03 500.87 392.49 492.39 383.87&#10;  Q 483.23 374.56 476.35 362.95&#10;  Q 469.16 350.83 458.08 328.89&#10;  Q 447.84 308.61 431.55 293.11&#10;  C 436.68 281.23 443.83 271.80 452.74 262.49&#10;  Z"/>
<path fill="#ffa07b" fill-opacity="0.992" d="&#10;  M 181.91 301.97&#10;  Q 196.70 309.02 209.83 311.97&#10;  Q 226.45 315.72 236.55 318.97&#10;  Q 232.52 324.70 229.83 328.09&#10;  Q 226.73 332.00 210.11 352.59&#10;  Q 203.16 361.19 193.05 379.52&#10;  Q 178.95 405.06 168.12 427.58&#10;  C 159.55 445.39 156.41 464.75 156.94 484.56&#10;  Q 157.02 487.57 157.65 491.40&#10;  C 158.14 494.36 157.88 497.12 158.23 500.52&#10;  Q 160.40 521.10 164.64 540.24&#10;  Q 165.13 542.45 165.30 542.84&#10;  Q 165.97 544.42 165.86 545.39&#10;  A 0.59 0.59 0.0 0 1 164.79 545.67&#10;  Q 164.00 544.55 162.80 542.22&#10;  Q 150.28 517.81 145.48 490.66&#10;  C 144.89 487.30 145.04 484.37 144.09 480.85&#10;  A 0.69 0.61 41.4 0 1 144.07 480.69&#10;  L 144.07 462.92&#10;  A 1.08 0.94 -40.9 0 1 144.11 462.64&#10;  Q 145.13 459.15 145.06 456.00&#10;  A 3.49 3.45 -35.9 0 1 145.28 454.68&#10;  Q 146.38 451.72 146.16 447.44&#10;  A 0.62 0.62 0.0 0 0 145.27 446.92&#10;  C 143.98 447.56 143.06 448.76 141.69 449.78&#10;  Q 111.96 471.96 103.86 478.62&#10;  Q 94.31 486.47 91.12 489.15&#10;  A 0.54 0.53 -4.2 0 1 90.32 488.46&#10;  C 96.14 479.11 103.08 470.42 111.14 462.30&#10;  Q 119.58 453.79 131.38 442.00&#10;  C 137.14 436.25 142.58 429.73 146.88 424.14&#10;  Q 156.11 412.15 162.66 398.44&#10;  Q 168.53 386.16 171.39 377.91&#10;  Q 176.14 364.23 180.08 355.03&#10;  Q 183.67 346.65 190.31 336.51&#10;  C 193.02 332.36 196.75 328.47 199.16 325.33&#10;  A 0.87 0.86 3.0 0 0 198.02 324.07&#10;  Q 193.34 326.92 187.88 329.83&#10;  Q 175.95 336.19 173.84 337.30&#10;  Q 157.31 346.00 126.68 360.24&#10;  Q 115.10 365.63 108.41 370.41&#10;  C 103.23 374.13 96.95 379.29 92.17 384.87&#10;  Q 81.83 396.96 76.27 407.77&#10;  Q 65.93 427.85 57.27 450.95&#10;  A 0.19 0.19 0.0 0 1 56.95 451.00&#10;  Q 55.74 449.48 56.24 447.69&#10;  Q 57.15 444.43 57.09 441.19&#10;  A 4.08 3.89 55.4 0 1 57.31 439.82&#10;  Q 57.57 439.02 58.16 435.28&#10;  Q 60.18 422.43 64.84 408.09&#10;  C 71.06 388.94 80.94 372.05 95.24 357.77&#10;  Q 108.08 344.93 123.56 335.83&#10;  Q 136.53 328.21 147.48 322.68&#10;  Q 165.41 313.63 181.91 301.97&#10;  Z"/>
<path fill="#ffcc84" fill-opacity="0.992" d="&#10;  M 363.47 353.53&#10;  L 387.79 328.68&#10;  Q 390.65 330.81 393.36 333.13&#10;  Q 396.74 336.01 398.86 337.65&#10;  Q 420.87 354.73 436.59 377.41&#10;  C 455.81 405.15 469.24 437.28 473.75 471.23&#10;  C 475.66 485.66 475.09 500.56 473.61 515.00&#10;  A 0.19 0.19 0.0 0 1 473.24 515.00&#10;  C 473.03 512.90 472.32 511.06 471.92 508.98&#10;  Q 468.66 492.15 464.92 477.30&#10;  C 460.59 460.12 454.64 443.32 445.89 428.00&#10;  Q 435.69 410.15 422.32 395.93&#10;  Q 418.21 391.57 415.34 388.45&#10;  A 0.76 0.75 -66.2 0 0 414.03 388.96&#10;  Q 413.96 398.21 414.02 400.84&#10;  Q 414.09 404.73 413.20 410.56&#10;  Q 412.02 418.30 412.00 420.27&#10;  Q 411.97 424.00 411.62 425.81&#10;  Q 411.12 428.39 411.08 428.77&#10;  C 410.55 434.60 409.94 438.85 409.97 444.42&#10;  C 410.00 450.18 409.66 460.43 410.33 467.53&#10;  Q 412.53 490.65 421.84 511.84&#10;  Q 425.98 521.25 431.63 532.77&#10;  A 0.41 0.41 0.0 0 1 430.96 533.23&#10;  Q 421.20 522.99 413.94 510.80&#10;  Q 399.91 487.24 394.54 460.10&#10;  C 394.05 457.66 394.16 455.04 393.38 452.52&#10;  A 6.06 6.04 -54.0 0 1 393.11 450.80&#10;  Q 392.99 438.01 393.13 433.58&#10;  Q 393.16 432.54 393.71 431.00&#10;  A 5.06 4.99 55.9 0 0 393.97 429.60&#10;  Q 394.44 414.43 394.14 400.63&#10;  Q 394.09 398.43 393.49 396.96&#10;  C 392.92 395.52 393.06 393.94 392.65 392.05&#10;  Q 389.37 377.04 377.22 365.28&#10;  Q 369.59 357.90 363.47 353.53&#10;  Z"/>
<path fill="#ffc282" fill-opacity="0.992" d="&#10;  M 330.71 334.65&#10;  L 329.84 350.76&#10;  A 2.78 2.76 -35.3 0 1 329.74 351.33&#10;  Q 329.37 352.57 329.31 353.26&#10;  Q 327.89 367.60 327.86 378.54&#10;  C 327.86 380.45 327.27 382.94 327.19 384.38&#10;  Q 326.26 402.09 327.14 418.44&#10;  Q 327.20 419.52 327.70 422.08&#10;  A 10.52 10.26 -52.4 0 1 327.90 423.78&#10;  Q 328.11 430.17 329.11 432.97&#10;  Q 329.91 435.23 330.05 436.57&#10;  A 3.21 0.45 87.6 0 0 330.32 438.05&#10;  Q 335.24 453.03 338.91 459.44&#10;  C 347.49 474.47 356.57 489.83 359.62 504.56&#10;  Q 361.40 513.19 360.92 529.52&#10;  C 360.83 532.31 359.94 535.65 359.88 538.78&#10;  A 5.97 5.69 53.1 0 1 359.74 539.96&#10;  Q 357.18 550.89 353.43 559.90&#10;  A 0.57 0.57 0.0 0 1 352.35 559.83&#10;  C 351.74 557.60 352.30 555.25 352.79 552.08&#10;  Q 352.98 550.85 353.04 547.41&#10;  Q 353.37 530.78 352.86 526.07&#10;  Q 351.88 516.92 346.90 506.37&#10;  Q 342.27 496.57 334.19 485.88&#10;  Q 326.09 475.15 315.36 458.31&#10;  Q 312.29 453.49 312.10 451.98&#10;  Q 311.96 450.80 311.62 450.45&#10;  A 1.18 1.18 0.0 0 0 309.68 450.79&#10;  C 308.26 454.00 307.94 458.46 306.79 462.13&#10;  Q 302.13 476.89 295.10 495.36&#10;  Q 293.96 498.33 291.12 511.67&#10;  Q 289.83 517.74 289.94 521.90&#10;  C 290.05 526.41 289.35 530.38 289.70 535.69&#10;  Q 289.98 539.89 290.11 548.83&#10;  A 6.08 6.05 39.7 0 0 290.22 549.98&#10;  L 290.81 553.16&#10;  A 3.09 2.81 42.4 0 1 290.86 553.70&#10;  Q 290.94 557.64 291.22 559.04&#10;  Q 291.81 562.05 291.90 563.71&#10;  Q 292.19 568.85 293.52 576.74&#10;  Q 293.67 577.61 295.01 590.01&#10;  A 0.23 0.22 19.3 0 1 294.62 590.19&#10;  Q 293.58 589.19 292.30 586.99&#10;  Q 277.53 561.58 272.29 534.80&#10;  C 271.68 531.69 271.00 528.54 271.02 525.60&#10;  C 271.03 523.22 270.29 521.16 270.18 519.25&#10;  C 269.50 507.33 271.47 495.36 274.48 483.79&#10;  C 277.08 473.81 282.95 460.51 285.39 453.90&#10;  Q 291.64 436.96 293.62 427.93&#10;  Q 294.19 425.30 295.58 417.56&#10;  Q 296.11 414.60 296.23 411.91&#10;  C 296.33 409.43 297.16 406.88 297.08 404.37&#10;  Q 296.84 396.95 297.50 393.09&#10;  A 0.68 0.68 0.0 0 0 296.59 392.34&#10;  C 294.40 393.18 293.49 395.18 291.78 396.16&#10;  C 289.62 397.42 286.60 400.64 284.16 402.71&#10;  Q 262.37 421.26 257.27 425.75&#10;  Q 237.60 443.04 226.11 462.58&#10;  Q 216.14 479.55 215.78 502.42&#10;  A 9.37 8.98 51.9 0 1 215.62 504.02&#10;  Q 214.60 509.49 215.17 514.99&#10;  Q 215.90 521.94 215.90 522.75&#10;  Q 215.94 528.50 216.86 540.61&#10;  A 0.23 0.23 0.0 0 1 216.44 540.74&#10;  L 214.62 537.69&#10;  A 1.92 1.25 82.6 0 1 214.51 537.46&#10;  Q 211.04 527.53 210.21 521.57&#10;  Q 209.63 517.39 209.40 517.02&#10;  A 2.37 2.34 30.9 0 1 209.07 515.75&#10;  Q 209.21 512.12 208.25 508.17&#10;  A 5.37 5.35 -52.1 0 1 208.09 506.87&#10;  L 208.09 491.11&#10;  A 5.37 5.35 52.1 0 1 208.25 489.81&#10;  Q 209.07 486.58 209.07 483.60&#10;  Q 209.07 480.64 209.57 479.30&#10;  C 210.19 477.64 209.98 475.53 210.33 473.58&#10;  C 212.94 459.25 218.04 444.19 226.24 432.23&#10;  C 229.18 427.94 231.14 424.93 234.29 421.23&#10;  Q 241.98 412.19 249.39 405.51&#10;  Q 258.51 397.28 262.45 392.83&#10;  Q 270.65 383.58 274.13 378.87&#10;  Q 281.82 368.47 287.25 354.73&#10;  C 302.95 349.33 317.28 343.65 330.71 334.65&#10;  Z"/>
</svg>